<?xml version="1.0" encoding="UTF-8" standalone="no"?>
<!DOCTYPE svg PUBLIC "-//W3C//DTD SVG 1.1//EN" "http://www.w3.org/Graphics/SVG/1.1/DTD/svg11.dtd">
<svg width="530" height="478" viewBox="0 0 530 478" version="1.1" xmlns="http://www.w3.org/2000/svg" xmlns:xlink="http://www.w3.org/1999/xlink" xml:space="preserve" xmlns:serif="http://www.serif.com/" style="fill-rule:nonzero;clip-rule:nonzero;stroke-linejoin:round;stroke-miterlimit:2;">
    <g transform="matrix(1,0,0,1,-14555.7401,-9275.503902)">
        <g transform="matrix(1,0,0,1,7143.286051,7760.107805)">
            <g transform="matrix(1.09487,0,0,0.925684,5214.985078,801.378744)">
                <g transform="matrix(-0.258329,0,0,0.297394,3102.389053,95.669531)">
                    <path d="M3959.071,2271.975C3962.999,2271.975 3966.701,2273.866 3969.072,2277.083C3971.444,2280.301 3972.211,2284.474 3971.146,2288.359C3953.833,2351.493 3891.802,2577.705 3879.542,2622.417C3878.291,2626.976 3874.243,2630.126 3869.632,2630.126C3760.433,2630.126 2538.512,2630.126 2395.701,2630.126C2392.477,2630.126 2389.439,2628.574 2387.493,2625.934C2385.547,2623.293 2384.917,2619.868 2385.791,2616.68C2401.886,2557.984 2465.742,2325.12 2478.201,2279.684C2479.451,2275.125 2483.5,2271.975 2488.11,2271.975C2596.588,2271.975 3803.132,2271.975 3959.071,2271.975Z" style="fill:rgb(29,30,155);"/>
                </g>
                <g transform="matrix(0.105325,0,0,0.316045,1808.028944,183.127559)">
                    <path d="M4179.551,2293.856C4187.526,2293.856 4195.032,2295.341 4199.798,2297.862C4204.563,2300.382 4206.028,2303.642 4203.748,2306.654C4161.787,2362.105 3996.353,2580.718 3964.344,2623.018C3961.152,2627.235 3951.312,2630.126 3940.146,2630.126C3778.779,2630.126 2628.943,2630.126 2415.986,2630.126C2408.011,2630.126 2400.505,2628.641 2395.739,2626.12C2390.974,2623.6 2389.509,2620.34 2391.789,2617.328C2433.751,2561.877 2599.184,2343.264 2631.194,2300.965C2634.385,2296.747 2644.225,2293.856 2655.391,2293.856C2816.758,2293.856 3966.594,2293.856 4179.551,2293.856Z" style="fill:rgb(29,30,155);"/>
                </g>
                <g transform="matrix(0.074749,0,0,0.383353,2174.533751,26.218997)">
                    <path d="M4192.296,2300.76C4204.289,2300.713 4215.578,2302.062 4222.323,2304.35C4229.069,2306.637 4230.364,2309.554 4225.767,2312.109C4141.272,2359.074 3825.544,2534.563 3768.277,2566.393C3762.849,2569.41 3750.181,2571.397 3736.021,2571.453C3562.751,2572.135 2475.339,2576.419 2218.591,2577.43C2206.598,2577.477 2195.309,2576.128 2188.563,2573.84C2181.818,2571.553 2180.523,2568.636 2185.12,2566.081C2269.615,2519.116 2585.343,2343.627 2642.61,2311.797C2648.038,2308.78 2660.706,2306.793 2674.866,2306.737C2848.136,2306.055 3935.547,2301.771 4192.296,2300.76Z" style="fill:rgb(29,30,155);"/>
                </g>
                <g transform="matrix(0.199371,0,0,0.297394,1573.330699,370.265761)">
                    <path d="M4040.624,2271.975C4044.659,2271.975 4048.478,2273.424 4051.01,2275.915C4053.542,2278.407 4054.516,2281.673 4053.659,2284.8C4037.919,2342.197 3974.154,2574.733 3961.249,2621.796C3959.915,2626.658 3954.489,2630.126 3948.214,2630.126C3818.615,2630.126 2558.104,2630.126 2398.656,2630.126C2394.62,2630.126 2390.802,2628.677 2388.269,2626.186C2385.737,2623.694 2384.763,2620.428 2385.621,2617.301C2401.36,2559.904 2465.125,2327.368 2478.031,2280.305C2479.364,2275.443 2484.791,2271.975 2491.066,2271.975C2620.664,2271.975 3881.176,2271.975 4040.624,2271.975Z" style="fill:rgb(29,30,155);"/>
                </g>
                <g transform="matrix(0.12872,0,0,0.297394,1700.035336,504.540877)">
                    <path d="M4033.411,2271.975C4039.392,2271.975 4045.079,2273.302 4049.003,2275.612C4052.927,2277.923 4054.703,2280.991 4053.872,2284.023C4038.586,2339.764 3974.901,2572.008 3961.462,2621.019C3960.03,2626.241 3951.302,2630.126 3941.001,2630.126C3780.181,2630.126 2589.547,2630.126 2405.869,2630.126C2399.888,2630.126 2394.2,2628.799 2390.276,2626.488C2386.352,2624.178 2384.576,2621.11 2385.408,2618.078C2400.693,2562.336 2464.378,2330.093 2477.818,2281.082C2479.25,2275.86 2487.977,2271.975 2498.279,2271.975C2659.098,2271.975 3849.733,2271.975 4033.411,2271.975Z" style="fill:rgb(29,30,155);"/>
                </g>
                <g transform="matrix(-0.101886,0,0,0.297394,2721.921366,504.540877)">
                    <path d="M4132.147,2271.975C4140.112,2271.975 4147.641,2273.449 4152.593,2275.977C4157.545,2278.505 4159.377,2281.811 4157.568,2284.954C4124.357,2342.676 3990.518,2575.286 3963.669,2621.95C3960.914,2626.738 3950.38,2630.126 3938.247,2630.126C3770.068,2630.126 2629.344,2630.126 2416.326,2630.126C2408.038,2630.126 2400.204,2628.592 2395.051,2625.962C2389.899,2623.331 2387.993,2619.891 2389.875,2616.621C2423.588,2558.026 2556.703,2326.675 2583.472,2280.151C2586.227,2275.363 2596.76,2271.975 2608.893,2271.975C2777.426,2271.975 3922.603,2271.975 4132.147,2271.975Z" style="fill:rgb(29,30,155);"/>
                </g>
            </g>
        </g>
    </g>
</svg>
